# xmcd
#
# Track frame offsets:
#	150
#	17962
#	39877
#	60037
#	78107
#	105936
#	112338
#	131941
#	150408
#	168004
#
# Disc length: 2496 seconds
#
# Revision: 24
# Processed by: cddbd v1.5.2PL0 Copyright (c) Steve Scherf et al.
# Submitted via: Jack! The Knife 20 Magnifico
#
DISCID=6909be0a
DTITLE=Alcatrazz - No Parole From Rock 'N' Roll
DYEAR=1983
DGENRE=Hard Rock
TTITLE0=Island In The Sun
TTITLE1=General Hospital
TTITLE2=Jet To Jet
TTITLE3=Hiroshima Mon Amour
TTITLE4=Kree Nakoorie
TTITLE5=Incubus
TTITLE6=Too Young To Die, Too Drunk To Live
TTITLE7=Big Foot
TTITLE8=Starcarr Lane
TTITLE9=Suffer Me
EXTD=Dennis Mackay
EXTT0=Bonnet, Malmsteen, Waldo
EXTT1=Bonnet, Malmsteen, Waldo
EXTT2=Bonnet, Malmsteen
EXTT3=Bonnet, Malmsteen
EXTT4=Bonnet, Malmsteen, Waldo
EXTT5=Yngwie Malmsteen
EXTT6=Bonnet, Malmsteen
EXTT7=Bonnet, Malmsteen
EXTT8=Bonnet, Malmsteen, Waldo
EXTT9=Bonnet, Malmsteen
PLAYORDER=
